<?xml version="1.0" encoding="UTF-8" standalone="no"?>
<!-- Created with Inkscape (http://www.inkscape.org/) -->

<svg
   xmlns:dc="http://purl.org/dc/elements/1.1/"
   xmlns:cc="http://creativecommons.org/ns#"
   xmlns:rdf="http://www.w3.org/1999/02/22-rdf-syntax-ns#"
   xmlns:svg="http://www.w3.org/2000/svg"
   xmlns="http://www.w3.org/2000/svg"
   version="1.1"
   width="52.000004"
   height="56"
   id="svg2">
  <defs
     id="defs4" />
  <metadata
     id="metadata7">
    <rdf:RDF>
      <cc:Work
         rdf:about="">
        <dc:format>image/svg+xml</dc:format>
        <dc:type
           rdf:resource="http://purl.org/dc/dcmitype/StillImage" />
        <dc:title></dc:title>
      </cc:Work>
    </rdf:RDF>
  </metadata>
  <g
     transform="translate(-137.35714,-387.32649)"
     id="layer1">
    <g
       transform="translate(59.642857,3.9285714)"
       id="g3166">
      <path
         d="m 113.71429,439.39792 -4,0 0,-2 0,-2 -2,0 -2,0 0,-2 0,-2 -2,0 -2,0 0,-6 0,-6 2,0 2,0 0,-2 0,-2 2,0 2,0 0,-4 0,-4 -2,0 -2,0 0,-4 0,-4 -2,0 -2,0 0,8 0,8 -2.000003,0 -2,0 0,2 0,2 -2,0 -2,0 0,2 0,2 -4,0 -4,0 0,-2 0,-2 -2,0 -2,0 0,-2 0,-2 -2,0 -2,0 0,-6 0,-6 2,0 2,0 0,-2 0,-2 2,0 2,0 0,-2 0,-2 4,0 4,0 0,-2 0,-2 4,0 4.000003,0 0,-2 0,-2 8,0 8,0 0,-2 0,-2 2,0 2,0 0,2 0,2 2,0 2,0 0,2 0,2 -2,0 -2,0 0,4 0,4 -2,0 -2,0 0,4 0,4 2,0 2,0 0,4 0,4 2,0 2,0 0,2 0,2 2,0 2,0 0,4 0,4 -2,0 -2,0 0,2 0,2 -2,0 -2,0 0,2 0,2 -2,0 -2,0 0,2 0,2 -4,0 z"
         id="path3180"
         style="fill:#fe5959" />
      <path
         d="m 113.71429,439.39792 -4,0 0,-2 0,-2 -2,0 -2,0 0,-2 0,-2 -2,0 -2,0 0,-6 0,-6 2,0 2,0 0,-2 0,-2 2,0 2,0 0,-4 0,-4 -2,0 -2,0 0,-4 0,-4 -2,0 -2,0 0,8 0,8 -2.000003,0 -2,0 0,2 0,2 -2,0 -2,0 0,2 0,2 -4,0 -4,0 0,-2 0,-2 -2,0 -2,0 0,-2 0,-2 -2,0 -2,0 0,-6 0,-6 2,0 2,0 0,-2 0,-2 2,0 2,0 0,-2 0,-2 4,0 4,0 0,-2 0,-2 4,0 4.000003,0 0,-2 0,-2 8,0 8,0 0,-2 0,-2 2,0 2,0 0,2 0,2 2,0 2,0 0,2 0,2 -2,0 -2,0 0,4 0,4 -2,0 -2,0 0,4 0,4 2,0 2,0 0,4 0,4 2,0 2,0 0,2 0,2 2,0 2,0 0,4 0,4 -2,0 -2,0 0,2 0,2 -2,0 -2,0 0,2 0,2 -2,0 -2,0 0,2 0,2 -4,0 z m -2,-16 2,0 0,-2 0,-2 2,0 2,0 0,-2 0,-2 -2,0 -2,0 0,2 0,2 -2,0 -2,0 0,2 0,2 2,0 z m -28.000003,-12 2,0 0,-2 0,-2 2,0 2,0 0,-2 0,-2 -2,0 -2,0 0,2 0,2 -2,0 -2,0 0,2 0,2 2,0 z"
         id="path3178"
         style="fill:#fe3b3b" />
      <path
         d="m 113.71429,439.39792 -4,0 0,-2 0,-2 -2,0 -2,0 0,-2 0,-2 -2,0 -2,0 0,-6 0,-6 2,0 2,0 0,-2 0,-2 2,0 2,0 0,-4 0,-4 -2,0 -2,0 0,-4 0,-4 -2,0 -2,0 0,8 0,8 -2.000003,0 -2,0 0,2 0,2 -2,0 -2,0 0,2 0,2 -4,0 -4,0 0,-2 0,-2 -2,0 -2,0 0,-2 0,-2 -2,0 -2,0 0,-6 0,-6 2,0 2,0 0,-2 0,-2 2,0 2,0 0,-2 0,-2 4,0 4,0 0,-2 0,-2 4,0 4.000003,0 0,-2 0,-2 8,0 8,0 0,-2 0,-2 2,0 2,0 0,2 0,2 2,0 2,0 0,2 0,2 -2,0 -2,0 0,4 0,4 -2,0 -2,0 0,4 0,4 2,0 2,0 0,4 0,4 2,0 2,0 0,2 0,2 2,0 2,0 0,4 0,4 -2,0 -2,0 0,2 0,2 -2,0 -2,0 0,2 0,2 -2,0 -2,0 0,2 0,2 -4,0 z m -6,-12 2,0 0,-2 0,-2 2,0 2,0 0,-2 0,-2 2,0 2,0 0,-2 0,-2 -4,0 -4,0 0,2 0,2 -2,0 -2,0 0,4 0,4 2,0 z m -24.000003,-16 2,0 0,-2 0,-2 2,0 2,0 0,-4 0,-4 -2,0 -2,0 0,2 0,2 -2,0 -2,0 0,4 0,4 2,0 z"
         id="path3176"
         style="fill:#fe0000" />
      <path
         d="m 113.71429,439.39792 -4,0 0,-2 0,-2 -2,0 -2,0 0,-2 0,-2 -2,0 -2,0 0,-6 0,-6 2,0 2,0 0,-2 0,-2 2,0 2,0 0,-4 0,-4 -2,0 -2,0 0,-4 0,-4 -2,0 -2,0 0,8 0,8 -2.000003,0 -2,0 0,2 0,2 -2,0 -2,0 0,2 0,2 -4,0 -4,0 0,-2 0,-2 -2,0 -2,0 0,-2 0,-2 -2,0 -2,0 0,-6 0,-6 2,0 2,0 0,-2 0,-2 2,0 2,0 0,-2 0,-2 4,0 4,0 0,-2 0,-2 4,0 4.000003,0 0,-2 0,-2 8,0 8,0 0,-2 0,-2 2,0 2,0 0,2 0,2 2,0 2,0 0,2 0,2 -2,0 -2,0 0,4 0,4 -2,0 -2,0 0,4 0,4 2,0 2,0 0,4 0,4 2,0 2,0 0,2 0,2 2,0 2,0 0,4 0,4 -2,0 -2,0 0,2 0,2 -2,0 -2,0 0,2 0,2 -2,0 -2,0 0,2 0,2 -4,0 z m -4,-8 4,0 0,-2 0,-2 2,0 2,0 0,-2 0,-2 2,0 2,0 0,-4 0,-4 -6,0 -6,0 0,2 0,2 -2,0 -2,0 0,6 0,6 4,0 z m -24.000003,-16 4,0 0,-2 0,-2 2,0 2,0 0,-2 0,-2 2,0 2,0 0,-2 0,-2 -4,0 -4,0 0,-2 0,-2 -2,0 -2,0 0,2 0,2 -2,0 -2,0 0,6 0,6 4,0 z"
         id="path3174"
         style="fill:#e00000" />
      <path
         d="m 113.71429,439.39792 -4,0 0,-2 0,-2 -2,0 -2,0 0,-2 0,-2 -2,0 -2,0 0,-6 0,-6 2,0 2,0 0,-2 0,-2 2,0 2,0 0,-4 0,-4 -2,0 -2,0 0,-4 0,-4 -2,0 -2,0 0,8 0,8 -2.000003,0 -2,0 0,2 0,2 -2,0 -2,0 0,2 0,2 -4,0 -4,0 0,-2 0,-2 -2,0 -2,0 0,-2 0,-2 -2,0 -2,0 0,-6 0,-6 2,0 2,0 0,-2 0,-2 2,0 2,0 0,-2 0,-2 4,0 4,0 0,-2 0,-2 4,0 4.000003,0 0,-2 0,-2 8,0 8,0 0,-2 0,-2 2,0 2,0 0,2 0,2 2,0 2,0 0,2 0,2 -2,0 -2,0 0,4 0,4 -2,0 -2,0 0,4 0,4 2,0 2,0 0,4 0,4 2,0 2,0 0,2 0,2 2,0 2,0 0,4 0,4 -2,0 -2,0 0,2 0,2 -2,0 -2,0 0,2 0,2 -2,0 -2,0 0,2 0,2 -4,0 z m -2,-8 6,0 0,-2 0,-2 2,0 2,0 0,-6 0,-6 -6,0 -6,0 0,2 0,2 -2,0 -2,0 0,6 0,6 6,0 z m -24.000003,-16 6,0 0,-2 0,-2 2,0 2,0 0,-4 0,-4 -4,0 -4,0 0,-2 0,-2 -2,0 -2,0 0,2 0,2 -2,0 -2,0 0,6 0,6 6,0 z"
         id="path3172"
         style="fill:#308710" />
      <path
         d="m 113.71429,439.39792 -4,0 0,-2 0,-2 -2,0 -2,0 0,-2 0,-2 -2,0 -2,0 0,-6 0,-6 2,0 2,0 0,-2 0,-2 2,0 2,0 0,-4 0,-4 -2,0 -2,0 0,-4 0,-4 -2,0 -2,0 0,8 0,8 -2.000003,0 -2,0 0,2 0,2 -2,0 -2,0 0,2 0,2 -4,0 -4,0 0,-2 0,-2 -2,0 -2,0 0,-2 0,-2 -2,0 -2,0 0,-6 0,-6 2,0 2,0 0,-2 0,-2 2,0 2,0 0,-2 0,-2 4,0 4,0 0,-2 0,-2 4,0 4.000003,0 0,-2 0,-2 8,0 8,0 0,-2 0,-2 2,0 2,0 0,2 0,2 2,0 2,0 0,2 0,2 -2,0 -2,0 0,4 0,4 -2,0 -2,0 0,4 0,4 2,0 2,0 0,4 0,4 2,0 2,0 0,2 0,2 2,0 2,0 0,4 0,4 -2,0 -2,0 0,2 0,2 -2,0 -2,0 0,2 0,2 -2,0 -2,0 0,2 0,2 -4,0 z m -2,-8 6,0 0,-2 0,-2 2,0 2,0 0,-6 0,-6 -2,0 -2,0 0,-4 0,-4 -2,0 -2,0 0,-4 0,-4 2,0 2,0 0,-4 0,-4 2,0 2,0 0,-2 0,-2 -2,0 -2,0 0,2 0,2 -8,0 -8,0 0,2 0,2 -4.000003,0 -4,0 0,2 0,2 -4,0 -4,0 0,2 0,2 -2,0 -2,0 0,6 0,6 6,0 6,0 0,-2 0,-2 2,0 2,0 0,-4 0,-4 -2,0 -2,0 0,-2 0,-2 4,0 4.000003,0 0,-2 0,-2 6,0 6,0 0,2 0,2 -2,0 -2,0 0,4 0,4 2,0 2,0 0,4 0,4 -2,0 -2,0 0,2 0,2 -2,0 -2,0 0,6 0,6 6,0 z"
         id="path3170"
         style="fill:#c20000" />
      <path
         d="m 113.71429,439.39792 -4,0 0,-2 0,-2 -2,0 -2,0 0,-2 0,-2 -2,0 -2,0 0,-6 0,-6 2,0 2,0 0,-2 0,-2 2,0 2,0 0,-4 0,-4 -2,0 -2,0 0,-4 0,-4 -2,0 -2,0 0,8 0,8 -2.000003,0 -2,0 0,2 0,2 -2,0 -2,0 0,2 0,2 -4,0 -4,0 0,-2 0,-2 -2,0 -2,0 0,-2 0,-2 -2,0 -2,0 0,-6 0,-6 2,0 2,0 0,-2 0,-2 2,0 2,0 0,-2 0,-2 4,0 4,0 0,-2 0,-2 4,0 4.000003,0 0,-2 0,-2 8,0 8,0 0,-2 0,-2 2,0 2,0 0,2 0,2 2,0 2,0 0,2 0,2 -2,0 -2,0 0,4 0,4 -2,0 -2,0 0,4 0,4 2,0 2,0 0,4 0,4 2,0 2,0 0,2 0,2 2,0 2,0 0,4 0,4 -2,0 -2,0 0,2 0,2 -2,0 -2,0 0,2 0,2 -2,0 -2,0 0,2 0,2 -4,0 z m 0,-4 4,0 0,-2 0,-2 2,0 2,0 0,-2 0,-2 2,0 2,0 0,-4 0,-4 -2,0 -2,0 0,-2 0,-2 -2,0 -2,0 0,-4 0,-4 -2,0 -2,0 0,-4 0,-4 2,0 2,0 0,-4 0,-4 2,0 2,0 0,-2 0,-2 -2,0 -2,0 0,2 0,2 -8,0 -8,0 0,2 0,2 -4.000003,0 -4,0 0,2 0,2 -4,0 -4,0 0,2 0,2 -2,0 -2,0 0,6 0,6 2,0 2,0 0,2 0,2 4,0 4,0 0,-2 0,-2 2,0 2,0 0,-6 0,-6 -2,0 -2,0 0,-2 0,-2 4,0 4.000003,0 0,-2 0,-2 6,0 6,0 0,2 0,2 -2,0 -2,0 0,4 0,4 2,0 2,0 0,4 0,4 -2,0 -2,0 0,2 0,2 -2,0 -2,0 0,6 0,6 2,0 2,0 0,2 0,2 4,0 z"
         id="path3168"
         style="fill:#000000" />
    </g>
  </g>
</svg>
